<?xml version="1.0" encoding="utf-8"?>
<!-- Generator: Adobe Illustrator 19.2.1, SVG Export Plug-In . SVG Version: 6.00 Build 0)  -->
<svg version="1.1" id="Layer_1" xmlns="http://www.w3.org/2000/svg" xmlns:xlink="http://www.w3.org/1999/xlink" x="0px" y="0px"
	 viewBox="0 0 300 15" style="enable-background:new 0 0 300 15;" xml:space="preserve">
<style type="text/css">
	.st0{opacity:0.66;}
	.st1{fill:#FFFFFF;}
</style>
<g>
	<g class="st0">
		<path class="st1" d="M13.7,13.1c-0.2,0-0.4,0-0.6-0.1c-0.2,0-0.6-0.1-1.2-1.6c-0.6-1.4-1.7-4.2-2.6-6.5C8.6,3.1,8,1.5,7.8,1.1
			C7.6,0.8,7.5,0.4,7.1,0.4c-0.4,0-0.6,0.4-0.8,0.9L2.1,11.8C1.8,12.6,1.5,13,1,13.1c-0.1,0-0.3,0-0.5,0c-0.4,0-0.5,0.2-0.5,0.5
			c0,0.2,0.1,0.5,0.6,0.5c0.6,0,1.2,0,1.6,0c0.2,0,0.3,0,0.4,0c0.3,0,0.5,0,0.9,0c0.3,0,0.6,0,0.9,0c0.5,0,0.6-0.3,0.6-0.5
			c0-0.2-0.1-0.5-0.6-0.5H4.1c-0.3,0-0.3-0.1-0.3-0.2c0-0.1,0.1-0.5,0.2-0.9l0.9-2.3h3.5l1.3,3.4c-0.3,0.1-0.4,0.3-0.4,0.5
			c0,0.4,0.4,0.4,0.8,0.5c1.3,0,2.5,0,3.1,0s1.1,0,1.1-0.5C14.3,13.5,14.2,13.1,13.7,13.1z M9.7,13.4L9.7,13.4L9.7,13.4L9.7,13.4z
			 M7.8,8.3H5.5L6.7,5L7.8,8.3z M9.8,13.7L9.8,13.7L9.8,13.7L9.8,13.7L9.8,13.7z"/>
		<path class="st1" d="M40.8,13.1c-0.2,0-0.4,0-0.6-0.1c-0.2,0-0.6-0.1-1.2-1.6c-0.6-1.4-1.7-4.2-2.6-6.5c-0.7-1.8-1.3-3.3-1.5-3.7
			c-0.1-0.3-0.3-0.7-0.7-0.7c-0.4,0-0.6,0.4-0.8,0.9l-4.2,10.4c-0.3,0.8-0.6,1.2-1.1,1.3c-0.1,0-0.3,0-0.5,0c-0.4,0-0.5,0.2-0.5,0.5
			c0,0.2,0.1,0.5,0.6,0.5c0.6,0,1.2,0,1.6,0c0.2,0,0.3,0,0.4,0c0.3,0,0.5,0,0.9,0c0.3,0,0.6,0,0.9,0c0.5,0,0.6-0.3,0.6-0.5
			c0-0.2-0.1-0.5-0.6-0.5h-0.2C31,13.1,31,13,31,12.9c0-0.1,0.1-0.5,0.2-0.9L32,9.7h3.5l1.3,3.4c-0.3,0.1-0.4,0.3-0.4,0.5
			c0,0.4,0.4,0.4,0.8,0.5c1.3,0,2.5,0,3.1,0s1.1,0,1.1-0.5C41.4,13.5,41.3,13.1,40.8,13.1z M36.8,13.4L36.8,13.4L36.8,13.4
			L36.8,13.4z M34.9,8.3h-2.3L33.8,5L34.9,8.3z M36.9,13.7L36.9,13.7L36.9,13.7L36.9,13.7L36.9,13.7z"/>
		<path class="st1" d="M69.5,13.1c-0.1,0-0.2,0-0.4,0s-0.8-0.2-1.7-1c-0.8-0.9-1.8-2.1-3-3.6L64,7.9c1.4-1.2,2.1-2.4,2.1-3.8
			c0-1.2-0.7-2.1-1.3-2.5c-1-0.7-2.2-0.8-3.2-0.8c-0.3,0-0.7,0-1.1,0c-0.5,0-0.9,0-1.2,0c-0.1,0-0.4,0-0.7,0c-0.5,0-1.1,0-1.6,0
			c-0.5,0-0.7,0.2-0.7,0.5c0,0.1,0.1,0.5,0.6,0.5c0.3,0,0.5,0,0.6,0c0.3,0.1,0.4,0.1,0.5,0.6c0,0.5,0,1,0,3.5v2.9
			c0,1.5,0,2.8-0.1,3.5c-0.1,0.4-0.1,0.6-0.2,0.6c-0.1,0-0.3,0.1-0.5,0.1c-0.5,0-0.6,0.3-0.6,0.5c0,0.1,0,0.5,0.7,0.5
			c0.4,0,0.9,0,1.4,0c0.3,0,0.5,0,0.7,0c0.1,0,0.3,0,0.5,0c0.5,0,1.3,0,1.9,0s0.7-0.4,0.7-0.5c0-0.2-0.2-0.5-0.5-0.5
			c-0.2,0-0.5,0-0.8-0.1c-0.2,0-0.3-0.1-0.4-0.6c-0.1-0.7-0.1-2-0.1-3.5l0,0H62c0.1,0.1,0.4,0.6,0.8,1.1c0.3,0.4,0.6,0.8,0.9,1.2
			c1,1.4,1.6,2.1,2.4,2.5c0.5,0.3,1,0.4,1.9,0.4h1.6c0.6,0,0.6-0.3,0.6-0.5C70,13.3,69.9,13.1,69.5,13.1z M63.5,4.9
			c0,1.4-0.5,2-0.8,2.2c-0.2,0.2-0.4,0.2-1,0.2c-0.4,0-0.8,0-1.1-0.1l0,0v-5c0.2,0,0.6,0,0.7,0C62.1,2.2,63.5,2.8,63.5,4.9z"/>
		<path class="st1" d="M91.3,0.5c-4.9,0-7.2,3.5-7.2,6.8s2.2,6.8,7,6.8c4.2,0,7.2-2.9,7.2-7.1C98.3,3.1,95.5,0.5,91.3,0.5z
			 M95.3,7.8c0,4.5-2.5,5-3.5,5c-2.8,0-4.8-2.4-4.8-5.9c0-4.2,2.3-4.9,3.7-4.9C93.4,2,95.3,4.3,95.3,7.8z"/>
		<path class="st1" d="M128.5,0.8c-0.6,0-1,0-1.3,0c-0.1,0-0.2,0-0.3,0s-0.3,0-0.6,0c-0.4,0-0.9,0-1.4,0c-0.2,0-0.8,0-0.8,0.5
			c0,0.1,0,0.5,0.6,0.5c0.2,0,0.6,0,0.8,0.1c0.2,0.1,0.3,0.1,0.4,1.2l0.1,6.7c-0.2-0.2-0.4-0.5-0.7-0.7c-0.8-0.8-1.8-1.9-2.5-2.6
			c-2.5-2.5-5.1-5.3-5.1-5.3L117.5,1c-0.2-0.2-0.4-0.5-0.7-0.5c-0.4,0-0.5,0.3-0.5,0.9l-0.1,9.8c0,1.3-0.1,1.7-0.3,1.7
			s-0.4,0.1-0.7,0.1c-0.5,0-0.6,0.3-0.6,0.5c0,0.3,0.2,0.5,0.7,0.5c0.6,0,1.2,0,1.5,0c0.1,0,0.2,0,0.3,0c0.1,0,0.3,0,0.4,0
			c0.4,0,0.9,0,1.6,0c0.6,0,0.7-0.3,0.7-0.5c0-0.1-0.1-0.5-0.6-0.5c-0.2,0-0.5,0-0.8-0.1c-0.1-0.1-0.3-0.4-0.4-1.5V5.2
			c0.7,0.8,2.1,2.3,3.4,3.6c0.7,0.7,1.5,1.5,2.2,2.2c1.1,1.1,2.1,2.1,2.7,2.7c0.2,0.2,0.5,0.5,0.8,0.5c0.4,0,0.5-0.3,0.5-0.8
			L127.8,3c0-1,0.2-1,0.4-1.1c0.2,0,0.3,0,0.4,0c0.6,0,0.6-0.4,0.6-0.5C129.2,0.9,129,0.8,128.5,0.8z"/>
	</g>
	<g>
		<path class="st1" d="M156.7,5.8l-0.5-0.3c-1.4-1-1.6-1.5-1.6-2.1c0-0.8,0.6-1.4,1.6-1.4c0.9,0,1.3,0.4,1.6,0.7
			c0.3,0.4,0.4,0.8,0.4,0.9c0,0.6,0.4,0.6,0.5,0.6c0.5,0,0.5-0.6,0.5-0.8c0-0.9,0-1.4,0.1-1.7c0-0.1,0-0.2,0-0.3
			c0-0.2-0.1-0.4-0.5-0.5c-0.5-0.1-1.2-0.3-2.3-0.3c-2.4,0-4.2,1.4-4.2,3.5c0,1.5,0.8,2.8,2.6,4.2l0.8,0.6c1.4,1.1,1.5,1.8,1.5,2.4
			c0,0.6-0.5,1.6-1.9,1.6c-0.7,0-1.7-0.2-2.1-1.4c-0.1-0.3-0.1-0.6-0.1-0.8c0-0.6-0.4-0.6-0.5-0.6c-0.2,0-0.5,0.1-0.5,0.8
			c-0.1,0.8-0.1,1.6-0.1,2.2c0,0.4,0.1,0.7,0.5,0.9c0.7,0.3,1.5,0.5,2.5,0.5c1.1,0,2-0.2,2.8-0.7c1.5-1,1.7-2.4,1.7-3.2
			C159.5,8.7,158.8,7.4,156.7,5.8z"/>
		<path class="st1" d="M188.3,13.1c-0.2,0-0.4,0-0.6-0.1c-0.2,0-0.6-0.1-1.2-1.6c-0.6-1.4-1.7-4.2-2.6-6.5c-0.7-1.8-1.3-3.3-1.5-3.7
			c-0.1-0.3-0.3-0.7-0.7-0.7c-0.4,0-0.6,0.4-0.8,0.9l-4.2,10.4c-0.3,0.8-0.6,1.2-1.1,1.3c-0.1,0-0.3,0-0.5,0c-0.4,0-0.5,0.2-0.5,0.5
			c0,0.2,0.1,0.5,0.6,0.5c0.6,0,1.2,0,1.6,0c0.2,0,0.3,0,0.4,0c0.3,0,0.5,0,0.9,0c0.3,0,0.6,0,0.9,0c0.5,0,0.6-0.3,0.6-0.5
			c0-0.2-0.1-0.5-0.6-0.5h-0.2c-0.3,0-0.3-0.1-0.3-0.2c0-0.1,0.1-0.5,0.2-0.9l0.9-2.3h3.5l1.3,3.4c-0.3,0.1-0.4,0.3-0.4,0.5
			c0,0.4,0.4,0.4,0.8,0.5c1.3,0,2.5,0,3.1,0s1.1,0,1.1-0.5C188.8,13.5,188.8,13.1,188.3,13.1z M184.2,13.4L184.2,13.4L184.2,13.4
			L184.2,13.4z M182.3,8.3H180l1.2-3.2L182.3,8.3z M184.3,13.7L184.3,13.7C184.3,13.7,184.4,13.7,184.3,13.7L184.3,13.7
			C184.4,13.7,184.3,13.7,184.3,13.7z"/>
		<path class="st1" d="M217,13.1c-0.1,0-0.2,0-0.4,0s-0.8-0.2-1.7-1c-0.8-0.9-1.8-2.1-3-3.6L211.5,8c1.4-1.2,2.1-2.4,2.1-3.8
			c0-1.2-0.7-2.1-1.3-2.5c-1-0.7-2.2-0.8-3.2-0.8c-0.3,0-0.7,0-1.1,0c-0.5,0-0.9,0-1.2,0c-0.1,0-0.4,0-0.7,0c-0.5,0-1.1,0-1.6,0
			c-0.5,0-0.7,0.2-0.7,0.5c0,0.1,0.1,0.5,0.6,0.5c0.3,0,0.5,0,0.6,0c0.3,0.1,0.4,0.2,0.5,0.6c0,0.5,0,1,0,3.5v2.9
			c0,1.5,0,2.8-0.1,3.5c-0.1,0.4-0.1,0.6-0.2,0.6c-0.1,0-0.3,0.1-0.5,0.1c-0.5,0-0.6,0.3-0.6,0.5c0,0.1,0,0.5,0.7,0.5
			c0.4,0,0.9,0,1.4,0c0.3,0,0.5,0,0.7,0c0.1,0,0.3,0,0.5,0c0.5,0,1.3,0,1.9,0c0.6,0,0.7-0.4,0.7-0.5c0-0.2-0.2-0.5-0.5-0.5
			c-0.2,0-0.5,0-0.8-0.1c-0.2,0-0.3-0.1-0.4-0.6c-0.1-0.7-0.1-2-0.1-3.5l0,0h1.3c0.1,0.1,0.4,0.6,0.8,1.1c0.3,0.4,0.6,0.8,0.9,1.2
			c1,1.4,1.6,2.1,2.4,2.5c0.5,0.3,1,0.4,1.9,0.4h1.6c0.6,0,0.6-0.3,0.6-0.5C217.6,13.3,217.4,13.1,217,13.1z M211,4.9
			c0,1.4-0.5,2-0.8,2.2c-0.2,0.2-0.4,0.2-1,0.2c-0.4,0-0.8,0-1.1-0.1l0,0v-5c0.2,0,0.6,0,0.7,0C209.7,2.2,211,2.8,211,4.9z"/>
		<path class="st1" d="M245.5,0.8c-0.6,0-1,0-1.3,0c-0.1,0-0.2,0-0.3,0c-0.1,0-0.3,0-0.6,0c-0.4,0-0.9,0-1.4,0c-0.2,0-0.8,0-0.8,0.5
			c0,0.1,0,0.5,0.6,0.5c0.2,0,0.6,0,0.8,0.1c0.2,0.1,0.3,0.1,0.4,1.2l0.1,6.7c-0.2-0.2-0.4-0.5-0.7-0.7c-0.8-0.8-1.8-1.9-2.5-2.6
			c-2.5-2.5-5.1-5.3-5.1-5.3L234.5,1c-0.2-0.2-0.4-0.5-0.7-0.5c-0.4,0-0.5,0.3-0.5,0.9l-0.1,9.8c0,1.3-0.1,1.7-0.3,1.7
			s-0.4,0.1-0.7,0.1c-0.5,0-0.6,0.3-0.6,0.5c0,0.3,0.2,0.5,0.7,0.5c0.6,0,1.2,0,1.5,0c0.1,0,0.2,0,0.3,0c0.1,0,0.3,0,0.5,0
			c0.4,0,0.9,0,1.6,0c0.6,0,0.7-0.3,0.7-0.5c0-0.1-0.1-0.5-0.6-0.5c-0.2,0-0.5,0-0.8-0.1c-0.1-0.1-0.3-0.4-0.4-1.5l-0.2-6.1
			c0.7,0.8,2.1,2.3,3.4,3.6c0.7,0.7,1.5,1.5,2.2,2.2c1.1,1.1,2.1,2.1,2.7,2.7c0.2,0.2,0.5,0.5,0.8,0.5c0.4,0,0.5-0.3,0.5-0.8
			L244.7,3c0-1,0.2-1,0.4-1.1c0.2,0,0.3,0,0.4,0c0.6,0,0.6-0.4,0.6-0.5C246.2,0.9,245.9,0.8,245.5,0.8z"/>
		<path class="st1" d="M274.7,13.1c-0.2,0-0.4,0-0.6-0.1c-0.2,0-0.6-0.1-1.2-1.6c-0.6-1.4-1.7-4.2-2.6-6.4c-0.7-1.8-1.3-3.4-1.5-3.8
			c-0.1-0.3-0.3-0.7-0.7-0.7s-0.6,0.4-0.8,0.9l-4.2,10.4c-0.3,0.8-0.6,1.2-1.1,1.3c-0.1,0-0.3,0-0.5,0c-0.4,0-0.5,0.2-0.5,0.5
			c0,0.2,0.1,0.5,0.6,0.5c0.6,0,1.2,0,1.6,0c0.2,0,0.3,0,0.4,0c0.2,0,0.5,0,0.8,0c0.3,0,0.6,0,0.9,0c0.5,0,0.6-0.3,0.6-0.5
			c0-0.2-0.1-0.5-0.6-0.5h-0.2c-0.3,0-0.3-0.1-0.3-0.2c0-0.1,0.1-0.5,0.2-0.9l0.9-2.3h3.5l1.3,3.4c-0.3,0.1-0.4,0.3-0.4,0.5
			c0,0.4,0.4,0.4,0.8,0.5c1.3,0,2.5,0,3.1,0s1.1,0,1.1-0.5C275.2,13.5,275.2,13.1,274.7,13.1z M270.6,13.4L270.6,13.4L270.6,13.4
			L270.6,13.4z M268.7,8.3h-2.3l1.2-3.2L268.7,8.3z M270.7,13.7L270.7,13.7C270.7,13.7,270.8,13.7,270.7,13.7L270.7,13.7
			C270.8,13.7,270.7,13.7,270.7,13.7z"/>
		<path class="st1" d="M299.6,0.7c-0.1,0-0.2,0-0.3,0.1h-0.2c-0.2,0-0.6,0.1-1.1,0.1h-6.6c-0.5,0-1.1,0-1.6-0.1
			c-0.2,0-0.3-0.1-0.4-0.1c-0.1,0-0.2-0.1-0.3-0.1c-0.4,0-0.5,0.4-0.5,0.6c0,0.1-0.4,1.7-0.4,2c0,0.5,0.3,0.6,0.5,0.6
			c0.1,0,0.4-0.1,0.5-0.4c0-0.1,0.1-0.2,0.2-0.5c0.1-0.2,0.4-0.3,1.3-0.3l2.1-0.1v6.5c0,1.5,0,2.8-0.1,3.5c0,0.4-0.1,0.6-0.2,0.6
			s-0.3,0.1-0.5,0.1c-0.5,0-0.6,0.3-0.6,0.5c0,0.1,0,0.5,0.7,0.5c0.4,0,0.9,0,1.3,0c0.3,0,0.6,0,0.8,0s0.4,0,0.8,0
			c0.5,0,1.2,0,1.8,0c0.5,0,0.6-0.3,0.6-0.5c0-0.1,0-0.5-0.6-0.5c-0.2,0-0.6,0-0.8-0.1c-0.2,0-0.3-0.1-0.4-0.6
			c-0.1-0.7-0.1-2-0.1-3.5V2.4h1.8c1.2,0,1.6,0.3,1.6,0.6v0.2c0,0.2,0,0.6,0.5,0.6c0.2,0,0.4-0.1,0.5-0.6c0-0.2,0-0.6,0-1
			s0-0.7,0-0.9C300.1,1.2,300.1,0.7,299.6,0.7z"/>
	</g>
</g>
</svg>
