<?xml version="1.0" encoding="utf-8"?>
<!-- Generator: Adobe Illustrator 19.2.1, SVG Export Plug-In . SVG Version: 6.00 Build 0)  -->
<svg version="1.1" id="Layer_1" xmlns="http://www.w3.org/2000/svg" xmlns:xlink="http://www.w3.org/1999/xlink" x="0px" y="0px"
	 viewBox="0 0 800 36" style="enable-background:new 0 0 800 36;" xml:space="preserve">
<style type="text/css">
	.st0{opacity:0.6;}
	.st1{fill:#FFFFFF;}
	.st2{opacity:0.8;}
</style>
<g>
	<g class="st0">
		<path class="st1" d="M15.9,1.9c0.5-1.5,0.7-1.8,1-1.8c0.3,0,0.5,0.2,1,1.6c0.7,1.7,7.8,20.6,10.6,27.5c1.6,4.1,3,4.8,3.9,5.1
			c0.7,0.2,1.4,0.3,1.8,0.3c0.3,0,0.5,0,0.5,0.3c0,0.3-0.4,0.4-0.9,0.4c-0.7,0-4,0-7.2-0.1c-0.9,0-1.4,0-1.4-0.3
			c0-0.2,0.1-0.3,0.3-0.3c0.3-0.1,0.5-0.5,0.3-1.2l-4.2-11.2c-0.1-0.2-0.2-0.3-0.4-0.3h-9.8c-0.2,0-0.4,0.1-0.5,0.4l-2.7,8.1
			c-0.4,1.1-0.6,2.2-0.6,3.1c0,0.9,1,1.3,1.7,1.3h0.5c0.3,0,0.5,0.1,0.5,0.3c0,0.3-0.3,0.4-0.7,0.4c-1.1,0-3.1-0.1-3.6-0.1
			c-0.5,0-3,0.1-5.1,0.1c-0.6,0-0.9-0.1-0.9-0.4c0-0.2,0.2-0.3,0.4-0.3c0.3,0,1,0,1.3-0.1c2.1-0.3,3-2,3.8-4.3L15.9,1.9z M20.6,20.1
			c0.2,0,0.2-0.1,0.2-0.3L16.5,7.5c-0.2-0.7-0.5-0.7-0.7,0l-4,12.3c-0.1,0.2,0,0.3,0.1,0.3H20.6z"/>
		<path class="st1" d="M88.3,1.9c0.5-1.5,0.7-1.8,1-1.8c0.3,0,0.5,0.2,1,1.6c0.7,1.7,7.8,20.6,10.6,27.5c1.6,4.1,3,4.8,3.9,5.1
			c0.7,0.2,1.4,0.3,1.8,0.3c0.3,0,0.5,0,0.5,0.3c0,0.3-0.4,0.4-0.9,0.4c-0.7,0-4,0-7.2-0.1c-0.9,0-1.4,0-1.4-0.3
			c0-0.2,0.1-0.3,0.3-0.3c0.3-0.1,0.5-0.5,0.3-1.2L94,22.1c-0.1-0.2-0.2-0.3-0.4-0.3h-9.8c-0.2,0-0.4,0.1-0.5,0.4l-2.7,8.1
			c-0.4,1.1-0.6,2.2-0.6,3.1c0,0.9,1,1.3,1.7,1.3h0.5c0.3,0,0.5,0.1,0.5,0.3c0,0.3-0.3,0.4-0.7,0.4c-1.1,0-3.1-0.1-3.6-0.1
			c-0.5,0-3,0.1-5.1,0.1c-0.6,0-0.9-0.1-0.9-0.4c0-0.2,0.2-0.3,0.4-0.3c0.3,0,1,0,1.3-0.1c2.1-0.3,3-2,3.8-4.3L88.3,1.9z M93,20.1
			c0.2,0,0.2-0.1,0.2-0.3L88.8,7.5c-0.2-0.7-0.5-0.7-0.7,0l-4,12.3c-0.1,0.2,0,0.3,0.1,0.3H93z"/>
		<path class="st1" d="M154,14c0-7.1,0-8.4-0.1-9.8c-0.1-1.5-0.5-2.3-2-2.6c-0.4-0.1-1.1-0.1-1.5-0.1c-0.2,0-0.4-0.1-0.4-0.3
			c0-0.3,0.2-0.4,0.7-0.4c2.1,0,4.9,0.1,5.1,0.1c0.5,0,4-0.1,5.4-0.1c2.9,0,5.9,0.3,8.3,2c1.1,0.8,3.1,3.1,3.1,6.2
			c0,3.4-1.4,6.7-5.5,10.5c3.7,4.8,6.8,8.8,9.5,11.7c2.5,2.6,4.4,3.1,5.6,3.3c0.9,0.1,1.5,0.1,1.8,0.1c0.2,0,0.4,0.1,0.4,0.3
			c0,0.3-0.3,0.4-1.1,0.4h-3.2c-2.6,0-3.7-0.2-4.9-0.9c-2-1-3.6-3.3-6.2-6.7c-1.9-2.5-4.1-5.6-5-6.7c-0.2-0.2-0.3-0.3-0.6-0.3
			l-5.6-0.1c-0.2,0-0.3,0.1-0.3,0.4V22c0,4.4,0,8,0.2,9.9c0.1,1.3,0.4,2.3,1.8,2.5c0.6,0.1,1.6,0.2,2.1,0.2c0.3,0,0.4,0.1,0.4,0.3
			c0,0.2-0.2,0.4-0.7,0.4c-2.5,0-5.4-0.1-5.6-0.1c0,0-2.9,0.1-4.3,0.1c-0.5,0-0.7-0.1-0.7-0.4c0-0.1,0.1-0.3,0.4-0.3
			c0.4,0,1-0.1,1.4-0.2c0.9-0.2,1.1-1.2,1.3-2.5C154,30,154,26.4,154,22V14z M157.7,18c0,0.2,0.1,0.4,0.3,0.5
			c0.7,0.4,2.8,0.7,4.8,0.7c1.1,0,2.4-0.1,3.4-0.9c1.6-1.1,2.8-3.6,2.8-7c0-5.7-3-9.1-7.9-9.1c-1.4,0-2.6,0.1-3.1,0.3
			c-0.2,0.1-0.4,0.3-0.4,0.5V18z"/>
		<path class="st1" d="M242.3,0.1c10.3,0,17.9,6.5,17.9,17.1c0,10.2-7.2,18.6-18.2,18.6c-12.5,0-17.7-9.7-17.7-17.9
			C224.4,10.6,229.7,0.1,242.3,0.1z M243.3,34.1c4.1,0,12.6-2.4,12.6-15.6c0-10.9-6.7-16.8-13.9-16.8c-7.6,0-13.3,5-13.3,15
			C228.7,27.3,235.1,34.1,243.3,34.1z"/>
		<path class="st1" d="M311.6,29c0.1,3.7,0.5,4.9,1.8,5.3c0.9,0.2,1.9,0.3,2.3,0.3c0.2,0,0.4,0.1,0.4,0.3c0,0.3-0.3,0.4-0.8,0.4
			c-2.6,0-4.4-0.1-4.8-0.1c-0.4,0-2.3,0.1-4.4,0.1c-0.5,0-0.7,0-0.7-0.4c0-0.2,0.1-0.3,0.4-0.3c0.4,0,1.2,0,1.9-0.3
			c1.1-0.3,1.4-1.6,1.4-5.8l0-26.1c0-1.8,0.1-2.3,0.5-2.3s1.1,1,1.6,1.5c0.7,0.8,7.5,8.1,14.5,15.6c4.5,4.8,9.5,10.4,10.9,11.9
			L335.9,6c0-3-0.4-4-1.8-4.3c-0.8-0.2-1.9-0.2-2.2-0.2c-0.3,0-0.4-0.1-0.4-0.3c0-0.3,0.4-0.3,0.9-0.3c2.1,0,4.2,0.1,4.7,0.1
			s2-0.1,3.9-0.1c0.5,0,0.8,0,0.8,0.3c0,0.2-0.2,0.3-0.5,0.3c-0.2,0-0.5,0-1.1,0.1c-1.5,0.3-1.7,1.3-1.7,4.1l-0.1,26.7
			c0,3-0.1,3.2-0.4,3.2c-0.4,0-0.9-0.5-3.3-2.9c-0.5-0.5-7.1-7.2-11.9-12.3c-5.3-5.7-10.4-11.4-11.9-13.1L311.6,29z"/>
	</g>
	<g class="st2">
		<path class="st1" d="M408.8,34.6c-0.6-0.3-0.7-0.5-0.7-1.7c0-2.3,0.2-4.1,0.2-4.8c0-0.5,0.1-0.7,0.4-0.7c0.3,0,0.3,0.1,0.3,0.5
			c0,0.4,0,1,0.1,1.7c0.7,3.4,3.7,4.6,6.7,4.6c4.4,0,6.5-3.1,6.5-6.1c0-3.1-1.3-5-5.2-8.2l-2.1-1.7c-4.8-4-5.9-6.8-5.9-9.9
			c0-4.9,3.6-8.2,9.4-8.2c1.8,0,3.1,0.2,4.2,0.5c0.9,0.2,1.2,0.2,1.6,0.2c0.4,0,0.5,0.1,0.5,0.3c0,0.2-0.2,1.7-0.2,4.8
			c0,0.7-0.1,1-0.3,1c-0.3,0-0.3-0.2-0.4-0.6c0-0.5-0.3-1.8-0.6-2.3c-0.3-0.5-1.5-2.4-5.7-2.4c-3.1,0-5.6,2-5.6,5.3
			c0,2.6,1.2,4.2,5.6,7.7l1.3,1c5.4,4.2,6.7,7.1,6.7,10.7c0,1.9-0.7,5.3-3.9,7.6c-2,1.4-4.4,1.9-6.9,1.9
			C412.8,35.9,410.7,35.5,408.8,34.6z"/>
		<path class="st1" d="M484.7,1.9c0.5-1.5,0.7-1.8,1-1.8c0.3,0,0.5,0.2,1,1.6c0.7,1.7,7.8,20.6,10.6,27.5c1.6,4.1,3,4.8,3.9,5.1
			c0.7,0.2,1.4,0.3,1.8,0.3c0.3,0,0.5,0,0.5,0.3c0,0.3-0.4,0.4-0.9,0.4c-0.7,0-4,0-7.2-0.1c-0.9,0-1.4,0-1.4-0.3
			c0-0.2,0.1-0.3,0.3-0.3c0.3-0.1,0.5-0.5,0.3-1.2l-4.2-11.2c-0.1-0.2-0.2-0.3-0.4-0.3h-9.8c-0.2,0-0.4,0.1-0.5,0.4l-2.7,8.1
			c-0.4,1.1-0.6,2.2-0.6,3.1c0,0.9,1,1.3,1.7,1.3h0.5c0.3,0,0.5,0.1,0.5,0.3c0,0.3-0.3,0.4-0.7,0.4c-1.1,0-3.1-0.1-3.6-0.1
			c-0.5,0-3,0.1-5.1,0.1c-0.6,0-0.9-0.1-0.9-0.4c0-0.2,0.2-0.3,0.4-0.3c0.3,0,1,0,1.3-0.1c2.1-0.3,3-2,3.8-4.3L484.7,1.9z
			 M489.4,20.1c0.2,0,0.2-0.1,0.2-0.3l-4.3-12.3c-0.2-0.7-0.5-0.7-0.7,0l-4,12.3c-0.1,0.2,0,0.3,0.1,0.3H489.4z"/>
		<path class="st1" d="M550.5,14c0-7.1,0-8.4-0.1-9.8c-0.1-1.5-0.5-2.3-2-2.6c-0.4-0.1-1.1-0.1-1.5-0.1c-0.2,0-0.4-0.1-0.4-0.3
			c0-0.3,0.2-0.4,0.7-0.4c2.1,0,4.9,0.1,5.1,0.1c0.5,0,4-0.1,5.4-0.1c2.9,0,5.9,0.3,8.3,2c1.1,0.8,3.1,3.1,3.1,6.2
			c0,3.4-1.4,6.7-5.5,10.5c3.7,4.8,6.8,8.8,9.5,11.7c2.5,2.6,4.4,3.1,5.6,3.3c0.9,0.1,1.5,0.1,1.8,0.1c0.2,0,0.4,0.1,0.4,0.3
			c0,0.3-0.3,0.4-1.1,0.4h-3.2c-2.6,0-3.7-0.2-4.9-0.9c-2-1-3.6-3.3-6.2-6.7c-1.9-2.5-4.1-5.6-5-6.7c-0.2-0.2-0.3-0.3-0.6-0.3
			l-5.6-0.1c-0.2,0-0.3,0.1-0.3,0.4V22c0,4.4,0,8,0.2,9.9c0.1,1.3,0.4,2.3,1.8,2.5c0.6,0.1,1.6,0.2,2.1,0.2c0.3,0,0.4,0.1,0.4,0.3
			c0,0.2-0.2,0.4-0.7,0.4c-2.5,0-5.4-0.1-5.6-0.1c0,0-2.9,0.1-4.3,0.1c-0.5,0-0.7-0.1-0.7-0.4c0-0.1,0.1-0.3,0.4-0.3
			c0.4,0,1-0.1,1.4-0.2c0.9-0.2,1.1-1.2,1.3-2.5c0.2-1.9,0.2-5.5,0.2-9.9V14z M554.1,18c0,0.2,0.1,0.4,0.3,0.5
			c0.7,0.4,2.8,0.7,4.8,0.7c1.1,0,2.4-0.1,3.4-0.9c1.6-1.1,2.8-3.6,2.8-7c0-5.7-3-9.1-7.9-9.1c-1.4,0-2.6,0.1-3.1,0.3
			c-0.2,0.1-0.4,0.3-0.4,0.5V18z"/>
		<path class="st1" d="M626.5,29c0.1,3.7,0.5,4.9,1.8,5.3c0.9,0.2,1.9,0.3,2.3,0.3c0.2,0,0.4,0.1,0.4,0.3c0,0.3-0.3,0.4-0.8,0.4
			c-2.6,0-4.4-0.1-4.8-0.1s-2.3,0.1-4.4,0.1c-0.5,0-0.7,0-0.7-0.4c0-0.2,0.1-0.3,0.4-0.3c0.4,0,1.2,0,1.9-0.3
			c1.1-0.3,1.4-1.6,1.4-5.8l0-26.1c0-1.8,0.1-2.3,0.5-2.3c0.4,0,1.1,1,1.6,1.5c0.7,0.8,7.5,8.1,14.5,15.6
			c4.5,4.8,9.5,10.4,10.9,11.9L650.9,6c0-3-0.4-4-1.8-4.3c-0.8-0.2-1.9-0.2-2.2-0.2c-0.3,0-0.4-0.1-0.4-0.3c0-0.3,0.4-0.3,0.9-0.3
			c2.1,0,4.2,0.1,4.7,0.1c0.5,0,2-0.1,3.9-0.1c0.5,0,0.8,0,0.8,0.3c0,0.2-0.2,0.3-0.5,0.3c-0.2,0-0.5,0-1.1,0.1
			c-1.5,0.3-1.7,1.3-1.7,4.1l-0.1,26.7c0,3-0.1,3.2-0.4,3.2c-0.4,0-0.9-0.5-3.3-2.9c-0.5-0.5-7.1-7.2-11.9-12.3
			c-5.3-5.7-10.4-11.4-11.9-13.1L626.5,29z"/>
		<path class="st1" d="M715.5,1.9c0.5-1.5,0.7-1.8,1-1.8c0.3,0,0.5,0.2,1,1.6c0.7,1.7,7.8,20.6,10.6,27.5c1.6,4.1,3,4.8,3.9,5.1
			c0.7,0.2,1.4,0.3,1.8,0.3c0.3,0,0.5,0,0.5,0.3c0,0.3-0.4,0.4-0.9,0.4c-0.7,0-4,0-7.2-0.1c-0.9,0-1.4,0-1.4-0.3
			c0-0.2,0.1-0.3,0.3-0.3c0.3-0.1,0.5-0.5,0.3-1.2l-4.2-11.2c-0.1-0.2-0.2-0.3-0.4-0.3H711c-0.2,0-0.4,0.1-0.5,0.4l-2.7,8.1
			c-0.4,1.1-0.6,2.2-0.6,3.1c0,0.9,1,1.3,1.7,1.3h0.5c0.3,0,0.5,0.1,0.5,0.3c0,0.3-0.3,0.4-0.7,0.4c-1.1,0-3.1-0.1-3.6-0.1
			c-0.5,0-3,0.1-5.1,0.1c-0.6,0-0.9-0.1-0.9-0.4c0-0.2,0.2-0.3,0.4-0.3c0.3,0,1,0,1.3-0.1c2.1-0.3,3-2,3.8-4.3L715.5,1.9z
			 M720.2,20.1c0.2,0,0.2-0.1,0.2-0.3l-4.3-12.3c-0.2-0.7-0.5-0.7-0.7,0l-4,12.3c-0.1,0.2,0,0.3,0.1,0.3H720.2z"/>
		<path class="st1" d="M787.8,22c0,4.4,0,8,0.2,9.9c0.1,1.3,0.4,2.3,1.8,2.5c0.6,0.1,1.6,0.2,2.1,0.2c0.3,0,0.4,0.1,0.4,0.3
			c0,0.2-0.2,0.4-0.7,0.4c-2.5,0-5.4-0.1-5.6-0.1c-0.2,0-3.1,0.1-4.5,0.1c-0.5,0-0.7-0.1-0.7-0.4c0-0.1,0.1-0.3,0.4-0.3
			c0.4,0,1-0.1,1.4-0.2c0.9-0.2,1.1-1.2,1.3-2.5C784,30,784,26.4,784,22V2.7l-6.7,0.1c-2.8,0-3.9,0.4-4.6,1.5
			c-0.5,0.8-0.6,1.1-0.8,1.4c-0.1,0.4-0.3,0.5-0.5,0.5c-0.1,0-0.2-0.1-0.2-0.4c0-0.5,0.9-4.4,1-4.7c0.1-0.3,0.3-0.9,0.5-0.9
			c0.3,0,0.8,0.5,2,0.5c1.3,0.1,3.1,0.2,3.6,0.2h17.1c1.5,0,2.5-0.1,3.2-0.2c0.7-0.1,1.1-0.2,1.3-0.2c0.2,0,0.2,0.3,0.2,0.5
			c0,1.4-0.1,4.5-0.1,5c0,0.4-0.1,0.6-0.3,0.6c-0.2,0-0.3-0.1-0.4-0.8l0-0.5c-0.1-1.4-1.2-2.4-5.6-2.5l-5.7-0.1V22z"/>
	</g>
</g>
</svg>
