<?xml version="1.0" encoding="utf-8"?>
<!-- Generator: Adobe Illustrator 19.2.1, SVG Export Plug-In . SVG Version: 6.00 Build 0)  -->
<svg version="1.1" id="Layer_1" xmlns="http://www.w3.org/2000/svg" xmlns:xlink="http://www.w3.org/1999/xlink" x="0px" y="0px"
	 viewBox="0 0 300 15" style="enable-background:new 0 0 300 15;" xml:space="preserve">
<style type="text/css">
	.st0{fill:#828388;}
	.st1{fill:#46474A;}
</style>
<g>
	<path class="st0" d="M13.7,13.2c-0.2,0-0.4,0-0.6-0.1c-0.2-0.1-0.6-0.2-1.3-1.7c-0.6-1.4-1.6-3.9-2.5-6.1C8.5,3.5,7.8,1.9,7.7,1.4
		C7.5,1.1,7.4,0.7,7,0.7c-0.4,0-0.5,0.4-0.7,0.8L2.1,11.8c-0.3,0.8-0.6,1.3-1.2,1.3c-0.1,0-0.3,0-0.5,0C0,13.2,0,13.5,0,13.6
		C0,13.8,0.1,14,0.6,14c0.6,0,1.2,0,1.6,0c0.2,0,0.3,0,0.4,0c0.3,0,0.6,0,0.9,0c0.3,0,0.6,0,0.9,0c0.5,0,0.5-0.3,0.5-0.4
		c0-0.3-0.2-0.4-0.5-0.4H4.1c-0.4,0-0.4-0.1-0.4-0.3c0-0.1,0.1-0.5,0.2-0.9l0.9-2.2h3.6l1.3,3.4l0.1,0l0,0c-0.3,0-0.5,0.2-0.5,0.4
		C9.2,14,9.6,14,9.9,14l0.1,0c1.3,0,2.5,0,3.1,0c0.6,0,1,0,1-0.4C14.2,13.5,14.1,13.2,13.7,13.2z M7.8,8.4H5.3L6.6,5L7.8,8.4z
		 M4.7,9.8L4.7,9.8V9.5V9.8z"/>
	<path class="st0" d="M40.8,13.2c-0.2,0-0.4,0-0.6-0.1c-0.2-0.1-0.6-0.2-1.3-1.7c-0.6-1.4-1.6-3.9-2.5-6.1c-0.8-1.9-1.4-3.5-1.6-3.9
		c-0.1-0.3-0.3-0.7-0.7-0.7c-0.4,0-0.5,0.4-0.7,0.8l-4.2,10.3c-0.3,0.8-0.6,1.3-1.2,1.3c-0.1,0-0.3,0-0.5,0c-0.4,0-0.5,0.3-0.5,0.4
		c0,0.2,0.1,0.4,0.6,0.4c0.6,0,1.2,0,1.6,0c0.2,0,0.3,0,0.4,0c0.3,0,0.6,0,0.9,0c0.3,0,0.6,0,0.9,0c0.5,0,0.5-0.3,0.5-0.4
		c0-0.3-0.2-0.4-0.5-0.4h-0.2c-0.4,0-0.4-0.1-0.4-0.3c0-0.1,0.1-0.5,0.2-0.9l0.9-2.2h3.6l1.3,3.4l0.1,0l0,0c-0.3,0-0.5,0.2-0.5,0.4
		c0,0.4,0.4,0.4,0.7,0.4l0.1,0c1.3,0,2.5,0,3.1,0c0.6,0,1,0,1-0.4C41.3,13.5,41.2,13.2,40.8,13.2z M34.9,8.4h-2.5L33.7,5L34.9,8.4z
		 M31.8,9.8L31.8,9.8V9.5V9.8z"/>
	<path class="st0" d="M69.5,13.2c-0.1,0-0.3,0-0.4,0c-0.2,0-0.9-0.2-1.7-1c-0.8-0.9-1.8-2.1-3-3.6L63.9,8C65.4,6.7,66,5.6,66,4.2
		c0-1.1-0.6-2.1-1.2-2.5c-1-0.7-2.2-0.8-3.2-0.8c-0.3,0-0.7,0-1.1,0c-0.5,0-0.9,0-1.2,0c-0.1,0-0.4,0-0.7,0c-0.5,0-1.1,0-1.6,0
		c-0.2,0-0.6,0-0.6,0.4c0,0.1,0.1,0.4,0.5,0.4c0.2,0,0.5,0,0.6,0C57.8,1.9,57.9,2,58,2.5c0,0.5,0,1,0,3.5V9c0,1.5,0,2.8-0.1,3.5
		c-0.1,0.5-0.1,0.7-0.3,0.7c-0.1,0-0.3,0.1-0.5,0.1c-0.5,0-0.5,0.3-0.5,0.4c0,0.1,0.1,0.4,0.6,0.4c0.4,0,0.9,0,1.4,0
		c0.3,0,0.5,0,0.7,0c0.1,0,0.3,0,0.5,0c0.5,0,1.3,0,1.9,0c0.5,0,0.6-0.3,0.6-0.4c0-0.2-0.1-0.4-0.5-0.4c-0.2,0-0.5,0-0.8-0.1
		c-0.2,0-0.4-0.1-0.4-0.7c-0.1-0.7-0.1-2-0.1-3.5V8.8l1.3,0c0.1,0,0.1,0,0.1,0C62,9,62.3,9.5,62.7,10c0.3,0.4,0.6,0.8,0.9,1.2
		c1,1.4,1.6,2.1,2.4,2.5c0.5,0.3,0.9,0.3,1.9,0.3h1.6c0.5,0,0.6-0.3,0.6-0.4C69.9,13.4,69.8,13.2,69.5,13.2z M63.5,5
		c0,1.4-0.5,2-0.9,2.3c-0.2,0.2-0.4,0.2-1,0.2c-0.4,0-0.9-0.1-1.1-0.1c0,0,0,0,0-0.1l0-5c0.2,0,0.6,0,0.8,0
		C62.1,2.3,63.5,2.9,63.5,5z"/>
	<path class="st0" d="M91.2,0.7c-4.9,0-7.1,3.5-7.1,6.8s2.2,6.8,6.9,6.8c4.2,0,7.1-2.9,7.1-7.1C98.2,3.3,95.5,0.7,91.2,0.7z
		 M91.8,12.9c-2.9,0-4.8-2.4-4.8-5.9c0-4.3,2.4-4.9,3.8-4.9c2.7,0,4.6,2.4,4.6,5.8C95.3,12.4,92.8,12.9,91.8,12.9z"/>
	<path class="st0" d="M128.5,1c-0.6,0-1,0-1.3,0c-0.1,0-0.2,0-0.3,0c-0.1,0-0.3,0-0.6,0c-0.4,0-0.9,0-1.4,0c-0.2,0-0.7,0-0.7,0.4
		c0,0.1,0.1,0.4,0.5,0.4c0.2,0,0.6,0,0.8,0.1c0.2,0.1,0.4,0.2,0.4,1.3L126,10c-0.2-0.2-0.5-0.5-0.8-0.8c-0.8-0.8-1.8-1.9-2.5-2.5
		c-2.5-2.4-5-5.1-5.1-5.3l-0.2-0.2c-0.2-0.2-0.4-0.4-0.7-0.4c-0.5,0-0.5,0.6-0.5,0.8l-0.1,9.8c0,1.4-0.1,1.7-0.3,1.8
		c-0.2,0-0.4,0.1-0.7,0.1c-0.5,0-0.5,0.3-0.5,0.4c0,0.4,0.5,0.4,0.6,0.4c0.6,0,1.2,0,1.5,0c0.1,0,0.2,0,0.3,0c0.1,0,0.3,0,0.5,0
		c0.4,0,0.9,0,1.6,0c0.5,0,0.6-0.2,0.6-0.4c0-0.1-0.1-0.4-0.5-0.4c-0.2,0-0.5,0-0.8-0.1c-0.2-0.1-0.4-0.6-0.4-1.6l-0.2-6.3
		c0.7,0.8,2.1,2.3,3.5,3.7c0.7,0.7,1.5,1.5,2.2,2.2c1.1,1.1,2.1,2.1,2.7,2.7c0.2,0.2,0.5,0.4,0.7,0.4c0.5,0,0.5-0.6,0.5-0.8L127.7,3
		c0-1,0.2-1.1,0.4-1.2c0.2,0,0.3,0,0.4,0c0.5,0,0.6-0.3,0.6-0.4C129.2,1,128.7,1,128.5,1z"/>
	<path class="st1" d="M156.7,6l-0.5-0.3c-1.4-1.1-1.7-1.6-1.7-2.2c0-0.9,0.7-1.4,1.7-1.4c0.9,0,1.3,0.4,1.6,0.7
		c0.3,0.4,0.4,0.8,0.4,0.9c0,0.5,0.3,0.6,0.4,0.6c0.4,0,0.4-0.5,0.4-0.8c0-0.9,0-1.4,0.1-1.7c0-0.1,0-0.2,0-0.3
		c0-0.2-0.1-0.4-0.4-0.5c-0.5-0.1-1.2-0.3-2.3-0.3c-2.4,0-4.1,1.4-4.1,3.4c0,1.5,0.8,2.7,2.6,4.1l0.8,0.6c1.3,1,1.5,1.7,1.5,2.4
		c0,0.7-0.5,1.6-2,1.6c-0.8,0-1.8-0.3-2.1-1.5c-0.1-0.3-0.1-0.6-0.1-0.8c0-0.5-0.3-0.5-0.4-0.5c-0.3,0-0.4,0.2-0.5,0.7l0,0.1
		c0,0.3-0.1,1.3-0.1,2.1c0,0.4,0.1,0.6,0.5,0.8c0.7,0.3,1.5,0.5,2.5,0.5c1.1,0,2-0.2,2.8-0.7c1.5-1,1.7-2.4,1.7-3.1
		C159.5,8.7,158.7,7.5,156.7,6z"/>
	<path class="st1" d="M188.3,13.2c-0.2,0-0.4,0-0.6-0.1c-0.2-0.1-0.6-0.2-1.3-1.7c-0.6-1.4-1.6-3.9-2.5-6.2
		c-0.8-1.9-1.4-3.5-1.6-3.9c-0.1-0.3-0.3-0.7-0.7-0.7c-0.4,0-0.5,0.4-0.7,0.8l-4.2,10.3c-0.3,0.8-0.6,1.3-1.2,1.3
		c-0.1,0-0.3,0-0.5,0c-0.4,0-0.5,0.3-0.5,0.4c0,0.2,0.1,0.4,0.6,0.4c0.6,0,1.2,0,1.6,0c0.2,0,0.3,0,0.4,0c0.3,0,0.6,0,0.9,0
		c0.3,0,0.6,0,0.9,0c0.5,0,0.5-0.3,0.5-0.4c0-0.3-0.2-0.4-0.5-0.4h-0.2c-0.4,0-0.4-0.1-0.4-0.3c0-0.1,0.1-0.5,0.2-0.9l0.9-2.2h3.6
		l1.3,3.4l0.1,0l0,0c-0.3,0-0.5,0.2-0.5,0.4c0,0.4,0.4,0.4,0.7,0.4l0.1,0c1.3,0,2.5,0,3.1,0c0.6,0,1,0,1-0.4
		C188.8,13.5,188.7,13.2,188.3,13.2z M182.4,8.4h-2.5l1.3-3.4L182.4,8.4z M179.3,9.8L179.3,9.8V9.5V9.8z"/>
	<path class="st1" d="M217,13.2c-0.1,0-0.3,0-0.4,0c-0.2,0-0.9-0.2-1.7-1c-0.8-0.9-1.8-2.1-3-3.6L211.4,8c1.5-1.2,2.1-2.4,2.1-3.7
		c0-1.1-0.6-2.1-1.2-2.5c-1-0.7-2.2-0.8-3.2-0.8c-0.3,0-0.7,0-1.1,0c-0.5,0-0.9,0-1.2,0c-0.1,0-0.4,0-0.7,0c-0.5,0-1.1,0-1.6,0
		c-0.2,0-0.6,0-0.6,0.4c0,0.1,0.1,0.4,0.5,0.4c0.2,0,0.5,0,0.6,0c0.4,0.1,0.5,0.2,0.5,0.7c0,0.5,0,1,0,3.5V9c0,1.5,0,2.8-0.1,3.5
		c-0.1,0.5-0.1,0.7-0.3,0.7c-0.1,0-0.3,0.1-0.5,0.1c-0.5,0-0.5,0.3-0.5,0.4c0,0.1,0.1,0.4,0.6,0.4c0.4,0,0.9,0,1.4,0
		c0.3,0,0.5,0,0.7,0c0.1,0,0.3,0,0.5,0c0.5,0,1.3,0,1.9,0c0.5,0,0.6-0.3,0.6-0.4c0-0.2-0.1-0.4-0.5-0.4c-0.2,0-0.5,0-0.8-0.1
		c-0.2,0-0.4-0.1-0.4-0.7c-0.1-0.7-0.1-2-0.1-3.5V8.8l1.3,0c0.1,0,0.1,0,0.1,0c0.1,0.1,0.4,0.6,0.8,1.1c0.3,0.4,0.6,0.8,0.9,1.2
		c1,1.4,1.6,2.1,2.4,2.5c0.5,0.3,0.9,0.3,1.9,0.3h1.6c0.5,0,0.6-0.3,0.6-0.4C217.4,13.4,217.3,13.2,217,13.2z M211,5
		c0,1.4-0.5,2-0.9,2.3c-0.2,0.2-0.4,0.2-1,0.2c-0.4,0-0.9-0.1-1.1-0.1c0,0,0,0,0-0.1l0-5c0.2,0,0.6,0,0.8,0C209.6,2.3,211,2.9,211,5
		z"/>
	<path class="st1" d="M245.4,1c-0.6,0-1,0-1.3,0c-0.1,0-0.2,0-0.3,0c-0.1,0-0.3,0-0.6,0c-0.4,0-0.9,0-1.4,0c-0.2,0-0.7,0-0.7,0.4
		c0,0.1,0.1,0.4,0.5,0.4c0.2,0,0.6,0,0.8,0.1c0.2,0.1,0.4,0.2,0.4,1.3l0.2,6.9c-0.2-0.2-0.5-0.5-0.8-0.8c-0.8-0.8-1.8-1.9-2.5-2.5
		c-2.5-2.4-5-5.1-5.1-5.3l-0.2-0.2c-0.2-0.2-0.4-0.4-0.7-0.4c-0.5,0-0.5,0.6-0.5,0.8l-0.1,9.8c0,1.4-0.1,1.7-0.3,1.8
		c-0.2,0-0.4,0.1-0.7,0.1c-0.5,0-0.5,0.3-0.5,0.4c0,0.4,0.5,0.4,0.6,0.4c0.6,0,1.2,0,1.5,0c0.1,0,0.2,0,0.3,0c0.1,0,0.3,0,0.5,0
		c0.4,0,0.9,0,1.6,0c0.5,0,0.6-0.2,0.6-0.4c0-0.1-0.1-0.4-0.5-0.4c-0.2,0-0.5,0-0.8-0.1c-0.2-0.1-0.4-0.6-0.4-1.6l-0.2-6.3
		c0.7,0.8,2.1,2.3,3.5,3.7c0.7,0.7,1.5,1.5,2.2,2.2c1.1,1.1,2.1,2.1,2.7,2.7c0.2,0.2,0.5,0.4,0.7,0.4c0.5,0,0.5-0.6,0.5-0.8L244.6,3
		c0-1,0.2-1.1,0.4-1.2c0.2,0,0.3,0,0.4,0c0.5,0,0.6-0.3,0.6-0.4C246.1,1,245.6,1,245.4,1z"/>
	<path class="st1" d="M274.6,13.2c-0.2,0-0.4,0-0.6-0.1c-0.2-0.1-0.6-0.2-1.3-1.7c-0.6-1.4-1.6-3.9-2.5-6.1
		c-0.8-1.9-1.4-3.5-1.6-3.9c-0.1-0.3-0.3-0.7-0.7-0.7c-0.4,0-0.5,0.4-0.7,0.8l-4.2,10.3c-0.3,0.8-0.6,1.3-1.2,1.3
		c-0.1,0-0.3,0-0.5,0c-0.4,0-0.5,0.3-0.5,0.4c0,0.2,0.1,0.4,0.6,0.4c0.6,0,1.2,0,1.6,0c0.2,0,0.3,0,0.4,0c0.3,0,0.6,0,0.9,0
		c0.3,0,0.6,0,0.9,0c0.5,0,0.5-0.3,0.5-0.4c0-0.3-0.2-0.4-0.5-0.4H265c-0.4,0-0.4-0.1-0.4-0.3c0-0.1,0.1-0.5,0.2-0.9l0.9-2.2h3.6
		l1.3,3.4l0.1,0l0,0c-0.3,0-0.5,0.2-0.5,0.4c0,0.4,0.4,0.4,0.7,0.4l0.1,0c1.3,0,2.5,0,3.1,0c0.6,0,1,0,1-0.4
		C275.1,13.5,275.1,13.2,274.6,13.2z M268.8,8.4h-2.5l1.3-3.4L268.8,8.4z M265.7,9.8L265.7,9.8V9.5V9.8z"/>
	<path class="st1" d="M299.6,0.9c-0.1,0-0.2,0-0.3,0.1l-0.2,0C298.9,1,298.5,1,298,1h-6.6c-0.5,0-1.1,0-1.6-0.1
		c-0.2,0-0.3-0.1-0.4-0.1c-0.1,0-0.2-0.1-0.3-0.1c-0.3,0-0.4,0.4-0.5,0.5c0,0.1-0.4,1.7-0.4,2c0,0.5,0.3,0.5,0.4,0.5
		c0.1,0,0.4-0.1,0.4-0.4c0-0.1,0.1-0.2,0.2-0.5c0.2-0.3,0.5-0.3,1.4-0.4l2.2-0.1V9c0,1.5,0,2.8-0.1,3.5c-0.1,0.6-0.2,0.7-0.3,0.7
		c-0.1,0-0.3,0.1-0.5,0.1c-0.5,0-0.5,0.3-0.5,0.4c0,0.1,0.1,0.4,0.6,0.4c0.4,0,0.9,0,1.3,0c0.3,0,0.6,0,0.8,0c0.2,0,0.5,0,0.8,0
		c0.5,0,1.2,0,1.8,0c0.6,0,0.6-0.4,0.6-0.4c0-0.1,0-0.4-0.5-0.4c-0.2,0-0.6,0-0.8-0.1c-0.3,0-0.4-0.2-0.4-0.7
		c-0.1-0.7-0.1-2-0.1-3.5V2.4l1.8,0c1,0,1.7,0.3,1.7,0.7l0,0.2c0,0.2,0,0.6,0.4,0.6c0.2,0,0.4-0.2,0.4-0.5c0-0.2,0-0.6,0-1
		c0-0.4,0-0.7,0-0.9C300,1.3,300,0.9,299.6,0.9z"/>
</g>
</svg>
